<svg xmlns="http://www.w3.org/2000/svg"  viewBox="0 0 305.59 221.387">
  <g id="layer1-7" transform="translate(-2948.604 -3589.481)">
    <g id="g6564" transform="translate(-3728.14 1809.465)">
      <path id="path4323" d="M6689.209,1780.016a12.5,12.5,0,0,0-12.465,12.452v196.456a12.509,12.509,0,0,0,12.465,12.478h280.66a12.508,12.508,0,0,0,12.465-12.478V1792.468a12.5,12.5,0,0,0-12.465-12.452Zm33.224,29.844h214.134L6829.513,1903.4l-107.081-93.536Zm234.971,14.9v138.185l-78.289-69.788,78.289-68.4Zm-255.729.078,78.614,68.7-78.614,70.087V1824.835Zm158.527,84.84,74.48,66.408h-209.52l74.051-66.018,22.071,19.289a12.508,12.508,0,0,0,16.4,0l22.513-19.679Z"/>
    </g>
  </g>
</svg>
